<svg width="245" height="57" viewBox="0 0 245 57" fill="none" xmlns="http://www.w3.org/2000/svg">
<path d="M23.2963 27.808C23.6483 28.128 23.8083 28.544 23.7763 29.056C23.7763 29.664 23.6803 30.224 23.4883 30.736C23.2963 31.216 22.8803 31.92 22.2403 32.848C21.4083 34.096 20.1763 35.488 18.5443 37.024C16.9443 38.528 15.4563 39.68 14.0803 40.48C12.8963 41.184 12.3203 41.6 12.3523 41.728C12.3523 41.792 12.4643 41.824 12.6883 41.824C12.9443 41.824 13.4083 42.016 14.0803 42.4C14.7843 42.784 15.2643 43.12 15.5203 43.408C16.5763 44.592 17.2643 45.952 17.5843 47.488C17.7763 48.448 17.8403 49.504 17.7763 50.656C17.7123 51.84 17.5363 52.752 17.2483 53.392C16.5763 54.864 15.7763 55.808 14.8483 56.224C14.4323 56.416 13.8243 56.512 13.0243 56.512C12.2563 56.512 11.5043 56.432 10.7683 56.272C8.65631 55.76 6.60831 54.432 4.62431 52.288C3.82431 51.424 3.18431 50.368 2.70431 49.12C2.25631 47.904 1.87231 46.224 1.55231 44.08C1.32831 42.64 1.18431 40.16 1.12031 36.64C1.02431 33.12 1.05631 30.608 1.21631 29.104C1.47231 26.672 1.79231 24.528 2.17631 22.672C2.56031 20.816 3.02431 19.168 3.56831 17.728C4.14431 16.256 4.83231 14.88 5.63231 13.6C7.68031 10.336 9.82431 8.432 12.0643 7.888C12.7683 7.728 13.4883 7.696 14.2243 7.792C14.9603 7.856 15.6803 8.064 16.3843 8.416C17.0883 8.768 17.7443 9.232 18.3523 9.808C20.0803 11.44 20.6723 13.264 20.1283 15.28C19.6163 17.328 18.2403 19.824 16.0003 22.768C15.2643 23.696 14.2723 24.832 13.0243 26.176C11.8083 27.52 11.0723 28.272 10.8163 28.432C10.6563 28.528 10.5443 28.624 10.4803 28.72C10.4163 28.816 10.3683 28.96 10.3363 29.152C10.3043 29.344 10.2723 29.664 10.2403 30.112C10.1123 31.456 10.0003 33.424 9.90431 36.016C9.84031 38.576 9.84031 39.968 9.90431 40.192L10.0483 40.624L10.7683 40.24C12.0163 39.568 13.6163 38.352 15.5683 36.592C17.5203 34.8 18.9763 33.216 19.9363 31.84C20.1283 31.552 20.3523 31.184 20.6083 30.736C20.8963 30.288 21.1523 29.84 21.3763 29.392C21.6323 28.944 21.8403 28.544 22.0003 28.192C22.1603 27.84 22.2403 27.616 22.2403 27.52C22.2403 27.168 22.4963 27.184 23.0083 27.568L23.2963 27.808ZM11.4883 22.912C11.1363 24.224 10.9603 24.96 10.9603 25.12C10.9923 25.312 11.3763 24.928 12.1123 23.968C12.4003 23.616 12.7523 23.168 13.1683 22.624C14.6723 20.64 15.8243 18.72 16.6243 16.864C17.4563 15.008 17.7763 13.6 17.5843 12.64C17.5203 12.384 17.4563 12.24 17.3923 12.208C17.3603 12.176 17.2323 12.224 17.0083 12.352C16.5923 12.544 16.0803 12.992 15.4723 13.696C14.8963 14.368 14.4483 15.04 14.1283 15.712C13.0403 17.888 12.1603 20.288 11.4883 22.912ZM14.0323 45.376C13.4243 44.448 12.9443 43.856 12.5923 43.6C12.2723 43.344 11.6323 43.12 10.6723 42.928L10.0483 42.832L10.1923 44.512C10.2563 45.664 10.4163 46.928 10.6723 48.304C10.9283 49.68 11.1683 50.656 11.3923 51.232C11.6483 51.84 11.9843 52.48 12.4003 53.152C12.7203 53.664 12.9123 53.936 12.9763 53.968C13.0723 54.032 13.2323 54 13.4563 53.872C13.7123 53.648 13.9843 53.344 14.2723 52.96C14.8483 52.128 15.1363 51.008 15.1363 49.6C15.1363 47.936 14.7683 46.528 14.0323 45.376ZM42.3073 27.232C42.7553 27.392 43.0113 27.6 43.0753 27.856C43.1393 28.08 43.0753 28.528 42.8833 29.2C42.6593 30 42.3553 31.024 41.9713 32.272C41.5553 33.744 41.0593 35.152 40.4833 36.496C40.0353 37.456 39.4113 38.576 38.6113 39.856C37.8113 41.136 37.1393 42.048 36.5953 42.592C35.9233 43.296 35.0113 43.792 33.8593 44.08C32.7393 44.336 31.6353 44.336 30.5473 44.08C28.9153 43.696 27.6193 43.184 26.6593 42.544C25.7313 41.872 24.8993 40.88 24.1633 39.568C23.5233 38.416 23.0113 37.2 22.6273 35.92C22.2753 34.608 22.0193 33.104 21.8593 31.408C21.6673 29.712 21.5713 27.648 21.5713 25.216C21.5713 23.328 21.6193 21.728 21.7153 20.416C21.8113 19.072 21.9713 17.808 22.1953 16.624C22.4193 15.408 22.7553 14.096 23.2033 12.688C24.8353 7.28 27.1873 3.728 30.2593 2.032C31.8913 1.168 33.7153 1.072 35.7313 1.744C37.7793 2.416 39.1873 3.584 39.9553 5.248C40.4033 6.208 40.5473 7.312 40.3873 8.56C40.2273 9.776 39.7473 11.328 38.9473 13.216C38.0513 15.264 36.8033 17.488 35.2033 19.888C33.9233 21.808 32.3233 23.952 30.4033 26.32C30.2433 26.48 30.1473 26.784 30.1153 27.232C30.0833 27.648 30.0673 28.688 30.0673 30.352C30.0673 32.784 30.1953 34.816 30.4513 36.448C31.0593 40.32 31.5873 42.256 32.0353 42.256C32.1313 42.256 32.4833 42.144 33.0913 41.92C34.1153 41.568 35.2513 40.512 36.4993 38.752C37.2993 37.664 38.1153 36.16 38.9473 34.24C39.7793 32.288 40.3713 30.528 40.7233 28.96C40.9153 28.032 41.1073 27.472 41.2993 27.28C41.4913 27.088 41.8273 27.072 42.3073 27.232ZM32.7553 11.68C32.3073 13.248 31.8113 15.296 31.2673 17.824C30.7233 20.352 30.4673 21.92 30.4993 22.528C30.4993 22.656 30.5153 22.72 30.5473 22.72L30.8833 22.384C31.1713 22.032 31.7633 21.2 32.6593 19.888C33.8753 18.128 34.9153 16.432 35.7793 14.8C36.6753 13.168 37.3473 11.696 37.7953 10.384C38.2753 9.04 38.5153 7.904 38.5153 6.976C38.5473 5.568 38.3553 4.848 37.9393 4.816C36.9793 4.72 36.0353 5.28 35.1073 6.496C34.2113 7.712 33.4273 9.44 32.7553 11.68ZM69.0666 26.752C69.7386 27.104 69.9146 27.632 69.5946 28.336C69.4346 28.688 69.1946 29.104 68.8746 29.584C68.5866 30.032 68.2506 30.48 67.8666 30.928C67.5146 31.344 67.1946 31.696 66.9066 31.984C66.5226 32.336 65.9146 32.8 65.0826 33.376C64.2826 33.952 63.4186 34.528 62.4906 35.104C61.5946 35.648 60.7786 36.112 60.0426 36.496C59.3386 36.848 58.8586 37.12 58.6026 37.312C58.3466 37.472 58.1866 37.664 58.1226 37.888C58.0266 38.208 57.6586 38.912 57.0186 40C56.7306 40.544 56.3626 41.104 55.9146 41.68C55.4666 42.224 55.0026 42.72 54.5226 43.168C54.0426 43.616 53.5946 43.968 53.1786 44.224C52.9226 44.384 52.4106 44.56 51.6426 44.752C50.9066 44.912 50.4426 44.976 50.2506 44.944C50.1866 44.944 49.8186 44.896 49.1466 44.8C46.5866 44.416 44.4586 43.296 42.7626 41.44C41.1946 39.712 40.1226 37.424 39.5466 34.576C39.2586 33.008 39.2746 31.136 39.5946 28.96C39.9146 26.752 40.4426 24.88 41.1786 23.344C41.8186 22.032 42.6346 20.896 43.6266 19.936C44.6506 18.944 45.6586 18.304 46.6506 18.016C47.2586 17.824 48.1066 17.728 49.1946 17.728C50.2826 17.728 51.1946 17.824 51.9306 18.016C53.3706 18.4 54.7306 19.088 56.0106 20.08C57.3226 21.072 58.2666 22.16 58.8426 23.344C59.1946 24.08 59.4186 24.448 59.5146 24.448C59.7386 24.448 59.9626 25.248 60.1866 26.848C60.3146 27.648 60.3146 28.736 60.1866 30.112C60.0906 31.488 59.9146 32.576 59.6586 33.376C59.6266 33.568 59.5786 33.744 59.5146 33.904C59.4826 34.032 59.4666 34.144 59.4666 34.24C59.4666 34.304 59.4666 34.352 59.4666 34.384C59.5946 34.384 60.2986 33.968 61.5786 33.136C62.8586 32.272 63.7546 31.632 64.2666 31.216C64.7466 30.832 65.1306 30.496 65.4186 30.208C65.7066 29.888 65.9786 29.552 66.2346 29.2C66.5226 28.816 66.8266 28.336 67.1466 27.76C67.5626 27.088 67.8666 26.704 68.0586 26.608C68.2826 26.48 68.6186 26.528 69.0666 26.752ZM54.2346 39.904C54.9066 38.976 55.2426 38.464 55.2426 38.368C55.2426 38.24 54.8586 38.192 54.0906 38.224C52.5226 38.352 50.8586 37.952 49.0986 37.024C48.1386 36.512 47.6426 36.272 47.6106 36.304C47.5786 36.336 47.6106 36.832 47.7066 37.792C47.9946 40.352 48.6026 42 49.5306 42.736C49.7866 42.928 50.0266 43.008 50.2506 42.976C50.4746 42.944 50.8746 42.768 51.4506 42.448C52.3786 41.968 53.3066 41.12 54.2346 39.904ZM58.0746 29.488C58.1386 28.016 58.0426 26.8 57.7866 25.84C57.5306 24.88 57.2746 24.128 57.0186 23.584C56.7626 23.104 56.3146 22.56 55.6746 21.952C55.0346 21.344 54.5866 21.04 54.3306 21.04C53.7226 21.04 53.0026 21.376 52.1706 22.048C51.3706 22.688 50.6826 23.456 50.1066 24.352C49.7226 24.992 49.4186 25.568 49.1946 26.08C49.0026 26.56 48.8586 27.056 48.7626 27.568C48.6666 28.08 48.6026 28.736 48.5706 29.536C48.5066 31.456 48.6666 32.928 49.0506 33.952C49.4666 34.976 50.1546 35.68 51.1146 36.064C51.4026 36.16 52.0426 36.224 53.0346 36.256C54.0586 36.256 54.8266 36.192 55.3386 36.064C55.8826 35.968 56.2186 35.872 56.3466 35.776C56.5066 35.68 56.8106 34.976 57.2586 33.664C57.5786 32.8 57.7706 32.144 57.8346 31.696C57.9306 31.216 58.0106 30.48 58.0746 29.488ZM106.055 26.896C106.215 27.024 106.279 27.2 106.247 27.424C106.247 27.616 106.135 28.208 105.911 29.2C105.271 32.048 104.631 33.984 103.991 35.008C103.703 35.424 103.367 35.84 102.983 36.256C102.631 36.64 102.279 36.976 101.927 37.264C101.575 37.52 101.255 37.696 100.967 37.792C100.487 37.952 99.8471 38 99.0471 37.936C98.2791 37.84 97.6071 37.664 97.0311 37.408C96.7431 37.28 96.5191 37.184 96.3591 37.12C96.1991 37.056 96.0711 37.008 95.9751 36.976C95.8791 36.944 95.8151 36.944 95.7831 36.976C95.7511 37.008 95.7351 37.056 95.7351 37.12C95.7351 37.376 95.4631 38.128 94.9191 39.376C94.4071 40.624 94.0071 41.456 93.7191 41.872C92.9191 43.056 92.0551 43.824 91.1271 44.176C90.1991 44.528 89.0791 44.512 87.7671 44.128C87.0951 43.936 86.5031 43.696 85.9911 43.408C85.5111 43.152 85.0631 42.816 84.6471 42.4C84.2311 41.952 83.8471 41.456 83.4951 40.912C83.1431 40.336 82.8231 39.712 82.5351 39.04C82.2471 38.336 82.0071 37.6 81.8151 36.832C81.5271 35.744 81.3511 35.184 81.2871 35.152C81.2551 35.088 81.0631 35.568 80.7111 36.592C79.9111 38.8 78.9031 40.656 77.6871 42.16C77.1751 42.736 76.8071 43.104 76.5831 43.264C76.3911 43.424 76.0711 43.584 75.6231 43.744C74.9511 43.936 74.1831 43.968 73.3191 43.84C71.7511 43.616 70.5191 43.04 69.6231 42.112C68.3111 40.8 67.4471 38.736 67.0311 35.92C66.7751 34.32 66.7591 32.144 66.9831 29.392C67.1751 26.608 67.5111 24.4 67.9911 22.768C68.1511 22.128 68.3591 21.456 68.6151 20.752C68.9031 20.048 69.1751 19.456 69.4311 18.976C69.6871 18.464 69.8631 18.176 69.9591 18.112C70.6631 17.76 71.7191 17.84 73.1271 18.352C74.5351 18.832 75.5111 19.472 76.0551 20.272L76.4871 20.896L75.7671 23.776C73.8471 31.456 73.0951 36.736 73.5111 39.616C73.6071 40.256 73.7671 40.88 73.9911 41.488C74.2151 42.096 74.3911 42.4 74.5191 42.4C74.6151 42.4 75.0631 42.016 75.8631 41.248C76.7271 40.416 77.4471 39.44 78.0231 38.32C78.5991 37.168 79.3831 35.184 80.3751 32.368C80.7911 31.088 81.0631 29.744 81.1911 28.336C81.4151 25.84 81.7351 24 82.1511 22.816C82.4391 22.016 82.7591 21.536 83.1111 21.376C83.6871 21.152 84.5351 21.184 85.6551 21.472C86.8071 21.728 87.6871 22.112 88.2951 22.624C88.7431 23.008 88.9991 23.472 89.0631 24.016C89.1591 24.528 89.1271 25.456 88.9671 26.8C88.3591 32.048 88.2311 35.92 88.5831 38.416C88.6791 39.28 88.8711 40.16 89.1591 41.056C89.4471 41.952 89.6711 42.4 89.8311 42.4C89.9911 42.4 90.2951 42.224 90.7431 41.872C91.2231 41.52 91.6231 41.152 91.9431 40.768C92.2951 40.416 92.6791 39.792 93.0951 38.896C93.5431 37.968 93.8791 37.136 94.1031 36.4L94.3911 35.44L93.7191 34.192C92.4071 31.76 91.8791 28.96 92.1351 25.792C92.3591 23.36 92.8551 21.456 93.6231 20.08C93.8471 19.664 94.0391 19.376 94.1991 19.216C94.3911 19.024 94.6311 18.864 94.9191 18.736C96.2951 18.192 97.2231 18.768 97.7031 20.464C98.2151 22.192 97.9751 25.792 96.9831 31.264L96.5511 33.712L97.0791 34.816C97.4311 35.552 97.7831 36.048 98.1351 36.304C98.3591 36.496 98.5351 36.608 98.6631 36.64C98.7911 36.672 99.0151 36.656 99.3351 36.592C99.8471 36.464 100.215 36.336 100.439 36.208C100.663 36.048 100.999 35.712 101.447 35.2C102.631 33.888 103.607 31.616 104.375 28.384C104.567 27.552 104.711 27.072 104.807 26.944C104.935 26.784 105.127 26.704 105.383 26.704C105.639 26.704 105.863 26.768 106.055 26.896ZM129.218 28C129.442 28.256 129.522 28.544 129.458 28.864C129.426 29.152 129.17 29.856 128.69 30.976C125.778 37.824 122.354 42.192 118.418 44.08C116.306 45.104 114.034 45.424 111.602 45.04C110.354 44.848 109.186 44.4 108.098 43.696C107.042 42.992 106.098 42 105.266 40.72C104.466 39.408 103.938 37.84 103.682 36.016C103.426 34.16 103.474 32 103.826 29.536C104.082 28 104.61 26.384 105.41 24.688C106.242 22.992 107.122 21.68 108.05 20.752C109.01 19.792 110.13 19.088 111.41 18.64C112.69 18.192 113.906 18.096 115.058 18.352C116.21 18.576 117.362 19.104 118.514 19.936C119.666 20.768 120.482 21.648 120.962 22.576C121.282 23.248 121.426 24.064 121.394 25.024C121.394 26.528 120.85 28.384 119.762 30.592C119.058 32.032 118.194 33.344 117.17 34.528C116.146 35.68 115.266 36.368 114.53 36.592C113.506 36.912 112.626 36.928 111.89 36.64C111.634 36.544 111.474 36.592 111.41 36.784C111.41 36.912 111.378 37.184 111.314 37.6C111.25 38.336 111.25 39.056 111.314 39.76C111.378 40.368 111.474 40.896 111.602 41.344C111.762 41.76 111.954 42.112 112.178 42.4C112.434 42.688 112.738 42.912 113.09 43.072C113.474 43.2 113.89 43.248 114.338 43.216C114.978 43.184 115.554 43.072 116.066 42.88C116.578 42.656 117.282 42.24 118.178 41.632C120.034 40.352 121.714 38.496 123.218 36.064C124.626 33.824 125.698 31.696 126.434 29.68C126.626 29.136 126.77 28.752 126.866 28.528C126.962 28.272 127.058 28.064 127.154 27.904C127.25 27.744 127.33 27.648 127.394 27.616C127.458 27.584 127.538 27.568 127.634 27.568C127.794 27.568 128.066 27.616 128.45 27.712C128.866 27.808 129.122 27.904 129.218 28ZM112.898 30.064C112.642 30.832 112.354 31.872 112.034 33.184C111.714 34.496 111.586 35.232 111.65 35.392C111.714 35.52 111.794 35.584 111.89 35.584C111.986 35.584 112.21 35.488 112.562 35.296C113.042 35.04 113.57 34.592 114.146 33.952C114.754 33.28 115.33 32.48 115.874 31.552C116.45 30.624 116.93 29.664 117.314 28.672C117.666 27.872 117.938 26.976 118.13 25.984C118.322 24.992 118.386 24.224 118.322 23.68L118.226 22.96L117.698 23.344C115.586 24.752 113.986 26.992 112.898 30.064ZM152.692 27.568C153.076 27.664 153.316 27.808 153.412 28C153.508 28.192 153.492 28.496 153.364 28.912C153.076 29.872 152.66 30.976 152.116 32.224C151.572 33.472 150.996 34.704 150.388 35.92C149.78 37.104 149.204 38.112 148.66 38.944C147.988 39.968 147.156 40.976 146.164 41.968C145.172 42.96 144.356 43.616 143.716 43.936C142.692 44.416 141.572 44.592 140.356 44.464C138.468 44.24 136.964 43.616 135.844 42.592C134.34 41.248 133.684 39.12 133.876 36.208C134.036 33.648 134.292 31.344 134.644 29.296C134.868 28.048 134.964 27.408 134.932 27.376C134.9 27.344 134.628 27.52 134.116 27.904C133.572 28.288 132.884 28.672 132.052 29.056C131.508 29.312 131.076 29.472 130.756 29.536C130.468 29.6 130.004 29.632 129.364 29.632C128.692 29.632 128.212 29.6 127.924 29.536C127.636 29.472 127.204 29.296 126.628 29.008C124.484 27.984 123.22 26.464 122.836 24.448C122.708 23.712 122.692 23.024 122.788 22.384C122.884 21.744 123.14 20.8 123.556 19.552C124.356 17.184 125.06 15.856 125.668 15.568C126.18 15.312 126.996 15.376 128.116 15.76C129.268 16.144 130.18 16.672 130.852 17.344C131.044 17.536 131.172 17.68 131.236 17.776C131.332 17.872 131.412 17.984 131.476 18.112C131.54 18.24 131.572 18.368 131.572 18.496C131.572 18.624 131.572 18.816 131.572 19.072C131.572 20.384 131.092 22.432 130.132 25.216C130.068 25.472 129.988 25.712 129.892 25.936C129.828 26.16 129.764 26.368 129.7 26.56C129.636 26.752 129.588 26.928 129.556 27.088C129.524 27.216 129.492 27.328 129.46 27.424C129.428 27.488 129.428 27.52 129.46 27.52C129.716 27.52 130.148 27.424 130.756 27.232C131.396 27.008 131.892 26.8 132.244 26.608C132.66 26.384 132.996 26.176 133.252 25.984C133.54 25.76 133.812 25.504 134.068 25.216C134.324 24.928 134.66 24.528 135.076 24.016C135.684 23.184 136.164 22.256 136.516 21.232C136.9 20.208 137.284 19.504 137.668 19.12C137.956 18.864 138.164 18.72 138.292 18.688C138.452 18.624 138.788 18.608 139.3 18.64C139.844 18.672 140.42 18.816 141.028 19.072C141.636 19.328 142.18 19.632 142.66 19.984C143.14 20.304 143.46 20.64 143.62 20.992C143.812 21.344 143.876 21.76 143.812 22.24C143.78 22.688 143.604 23.568 143.284 24.88C142.484 28.144 141.732 31.952 141.028 36.304C140.9 37.2 140.804 38.448 140.74 40.048C140.676 41.648 140.708 42.496 140.836 42.592C140.9 42.656 141.252 42.576 141.892 42.352C144.068 41.616 146.388 39.008 148.852 34.528C149.556 33.216 149.956 32.496 150.052 32.368C150.148 32.24 150.42 31.6 150.868 30.448C151.316 29.264 151.572 28.512 151.636 28.192C151.764 27.648 152.116 27.44 152.692 27.568ZM189.139 28.384C189.267 28.608 189.331 28.784 189.331 28.912C189.331 29.04 189.251 29.264 189.091 29.584C188.899 30 188.579 30.384 188.131 30.736C187.715 31.088 186.899 31.6 185.683 32.272C183.795 33.36 181.987 34.08 180.259 34.432L179.251 34.624L179.395 35.68C179.523 36.8 179.411 38.16 179.059 39.76C178.707 41.36 178.243 42.656 177.667 43.648C177.251 44.32 176.707 44.992 176.035 45.664C175.395 46.304 174.755 46.784 174.115 47.104C173.347 47.52 172.419 47.808 171.331 47.968C170.275 48.128 169.379 48.112 168.643 47.92C167.875 47.728 167.155 47.36 166.483 46.816C165.811 46.304 165.331 45.712 165.043 45.04C163.955 42.448 164.627 39.936 167.059 37.504C167.795 36.768 168.851 36.048 170.227 35.344C171.603 34.608 172.355 34.16 172.483 34C172.643 33.84 172.723 33.104 172.723 31.792C172.691 30.576 172.563 29.536 172.339 28.672C172.115 27.808 171.827 27.312 171.475 27.184C171.027 27.024 170.499 27.104 169.891 27.424C169.315 27.712 168.723 28.224 168.115 28.96C167.539 29.664 166.995 30.512 166.483 31.504C165.555 33.328 164.755 35.424 164.083 37.792C163.411 40.16 163.075 42.08 163.075 43.552C163.075 44.32 163.027 44.816 162.931 45.04C162.803 45.296 162.403 45.472 161.731 45.568C161.091 45.664 160.419 45.664 159.715 45.568C158.499 45.344 157.491 44.944 156.691 44.368C155.923 43.792 155.187 42.896 154.483 41.68C153.395 39.888 152.547 37.632 151.939 34.912C151.299 32.192 150.979 29.408 150.979 26.56C150.979 24.096 151.235 21.328 151.747 18.256C152.323 14.992 153.315 11.856 154.723 8.848C156.131 5.84 157.587 3.76 159.091 2.608C159.763 2.128 160.371 1.808 160.915 1.648C161.459 1.456 162.227 1.36 163.219 1.36C164.339 1.36 165.219 1.504 165.859 1.792C166.499 2.08 167.267 2.656 168.163 3.52C169.507 4.864 170.355 6.432 170.707 8.224C171.123 10.144 170.723 12.736 169.507 16C168.835 17.792 167.731 19.792 166.195 22C164.659 24.176 163.123 25.936 161.587 27.28C160.947 27.856 160.595 28.272 160.531 28.528C160.467 28.784 160.483 29.632 160.579 31.072C160.675 32.512 160.771 33.456 160.867 33.904C160.963 34.32 161.091 35.04 161.251 36.064C161.443 37.664 161.587 38.4 161.683 38.272C161.715 38.24 161.731 38.176 161.731 38.08C161.731 37.888 161.843 37.408 162.067 36.64C162.291 35.84 162.547 34.976 162.835 34.048C163.155 33.12 163.427 32.384 163.651 31.84C165.379 27.424 167.155 24.944 168.979 24.4C170.419 23.984 172.067 24.448 173.923 25.792C175.779 27.104 177.171 28.816 178.099 30.928C178.483 31.824 178.755 32.288 178.915 32.32C179.139 32.384 180.003 32.144 181.507 31.6C183.011 31.056 184.147 30.56 184.915 30.112C185.971 29.568 186.755 28.992 187.267 28.384C187.651 28 187.891 27.776 187.987 27.712C188.115 27.616 188.275 27.616 188.467 27.712C188.755 27.84 188.979 28.064 189.139 28.384ZM160.627 24.4L160.531 25.264L161.251 24.496C161.699 24.016 162.403 23.136 163.363 21.856C166.627 17.504 168.451 13.424 168.835 9.616C168.931 8.912 168.883 8.224 168.691 7.552C168.531 6.88 168.323 6.544 168.067 6.544C167.843 6.544 167.347 6.912 166.579 7.648C165.843 8.352 165.363 8.944 165.139 9.424C164.339 10.96 163.747 12.128 163.363 12.928C163.011 13.696 162.723 14.384 162.499 14.992C162.307 15.568 162.099 16.288 161.875 17.152C161.427 18.816 161.011 21.232 160.627 24.4ZM168.499 44.704C169.107 43.904 169.875 42.448 170.803 40.336C171.763 38.192 172.147 37.04 171.955 36.88C171.891 36.816 171.411 37.008 170.515 37.456C170.035 37.68 169.555 37.984 169.075 38.368C168.595 38.72 168.147 39.104 167.731 39.52C167.347 39.936 167.043 40.352 166.819 40.768C166.563 41.312 166.435 42.048 166.435 42.976C166.435 43.904 166.563 44.624 166.819 45.136C167.011 45.456 167.139 45.648 167.203 45.712C167.299 45.776 167.427 45.776 167.587 45.712C167.811 45.584 168.115 45.248 168.499 44.704ZM219.679 28.288L220.063 28.576L219.007 31.168C218.303 32.928 217.951 33.84 217.951 33.904C217.951 34 217.647 34.8 217.039 36.304C216.431 37.776 215.951 38.88 215.599 39.616C214.863 41.216 214.111 42.464 213.343 43.36C212.607 44.256 211.807 44.864 210.943 45.184C210.079 45.504 209.087 45.536 207.967 45.28C207.199 45.12 206.463 44.864 205.759 44.512C205.119 44.224 204.463 43.744 203.791 43.072C203.119 42.368 202.639 41.712 202.351 41.104C202.255 40.88 202.143 40.608 202.015 40.288C201.919 39.936 201.823 39.552 201.727 39.136C201.631 38.72 201.535 38.304 201.439 37.888C201.375 37.472 201.311 37.088 201.247 36.736C201.215 36.352 201.199 36.016 201.199 35.728C201.199 35.248 201.167 34.992 201.103 34.96C201.071 34.928 200.991 35.056 200.863 35.344L200.623 35.92C200.399 36.496 199.855 37.696 198.991 39.52C197.711 42.144 196.543 43.872 195.487 44.704C195.167 44.928 194.895 45.072 194.671 45.136C194.447 45.168 193.951 45.168 193.183 45.136C192.095 45.136 191.215 45.008 190.543 44.752C189.903 44.496 189.247 44.032 188.575 43.36C187.583 42.4 186.895 41.248 186.511 39.904C186.127 38.56 185.967 36.832 186.031 34.72C186.159 31.872 186.687 29.28 187.615 26.944C189.151 23.264 190.879 20.768 192.799 19.456C194.751 18.112 196.847 18 199.087 19.12C200.623 19.888 201.727 20.864 202.399 22.048L202.879 22.912L203.263 21.808C203.839 20.112 204.415 19.104 204.991 18.784C205.663 18.432 206.671 18.608 208.015 19.312C209.391 19.984 210.319 20.768 210.799 21.664C211.183 22.432 211.183 23.92 210.799 26.128C210.479 27.888 210.127 30.08 209.743 32.704C209.391 35.296 209.199 37.056 209.167 37.984C209.007 40.032 209.167 41.664 209.647 42.88C209.711 43.104 209.775 43.232 209.839 43.264C209.903 43.296 209.999 43.264 210.127 43.168C210.447 43.008 210.863 42.672 211.375 42.16C211.919 41.616 212.383 41.072 212.767 40.528C213.535 39.472 214.463 37.712 215.551 35.248C216.639 32.784 217.423 30.72 217.903 29.056C217.967 28.768 218.015 28.576 218.047 28.48C218.111 28.352 218.175 28.24 218.239 28.144C218.303 28.048 218.367 28 218.431 28C218.495 28 218.607 28 218.767 28C219.119 28 219.423 28.096 219.679 28.288ZM199.759 33.376C201.167 29.6 201.759 27.424 201.535 26.848C201.439 26.56 201.391 26.208 201.391 25.792C201.391 24.864 201.151 24.016 200.671 23.248L200.335 22.672L199.807 23.152C198.975 23.92 198.095 25.12 197.167 26.752C196.239 28.384 195.487 30 194.911 31.6C194.367 33.136 193.983 34.832 193.759 36.688C193.535 38.512 193.503 40.032 193.663 41.248C193.855 42.56 194.031 43.216 194.191 43.216C194.255 43.216 194.575 42.912 195.151 42.304C195.759 41.696 196.495 40.56 197.359 38.896C198.223 37.232 199.023 35.392 199.759 33.376ZM244.145 27.568C244.529 27.664 244.769 27.808 244.865 28C244.961 28.192 244.945 28.496 244.817 28.912C244.529 29.872 244.113 30.976 243.569 32.224C243.025 33.472 242.449 34.704 241.841 35.92C241.233 37.104 240.657 38.112 240.113 38.944C239.441 39.968 238.609 40.976 237.617 41.968C236.625 42.96 235.809 43.616 235.169 43.936C234.145 44.416 233.025 44.592 231.809 44.464C229.921 44.24 228.417 43.616 227.297 42.592C225.793 41.248 225.137 39.12 225.329 36.208C225.489 33.648 225.745 31.344 226.097 29.296C226.321 28.048 226.417 27.408 226.385 27.376C226.353 27.344 226.081 27.52 225.569 27.904C225.025 28.288 224.337 28.672 223.505 29.056C222.961 29.312 222.529 29.472 222.209 29.536C221.921 29.6 221.457 29.632 220.817 29.632C220.145 29.632 219.665 29.6 219.377 29.536C219.089 29.472 218.657 29.296 218.081 29.008C215.937 27.984 214.673 26.464 214.289 24.448C214.161 23.712 214.145 23.024 214.241 22.384C214.337 21.744 214.593 20.8 215.009 19.552C215.809 17.184 216.513 15.856 217.121 15.568C217.633 15.312 218.449 15.376 219.569 15.76C220.721 16.144 221.633 16.672 222.305 17.344C222.497 17.536 222.625 17.68 222.689 17.776C222.785 17.872 222.865 17.984 222.929 18.112C222.993 18.24 223.025 18.368 223.025 18.496C223.025 18.624 223.025 18.816 223.025 19.072C223.025 20.384 222.545 22.432 221.585 25.216C221.521 25.472 221.441 25.712 221.345 25.936C221.281 26.16 221.217 26.368 221.153 26.56C221.089 26.752 221.041 26.928 221.009 27.088C220.977 27.216 220.945 27.328 220.913 27.424C220.881 27.488 220.881 27.52 220.913 27.52C221.169 27.52 221.601 27.424 222.209 27.232C222.849 27.008 223.345 26.8 223.697 26.608C224.113 26.384 224.449 26.176 224.705 25.984C224.993 25.76 225.265 25.504 225.521 25.216C225.777 24.928 226.113 24.528 226.529 24.016C227.137 23.184 227.617 22.256 227.969 21.232C228.353 20.208 228.737 19.504 229.121 19.12C229.409 18.864 229.617 18.72 229.745 18.688C229.905 18.624 230.241 18.608 230.753 18.64C231.297 18.672 231.873 18.816 232.481 19.072C233.089 19.328 233.633 19.632 234.113 19.984C234.593 20.304 234.913 20.64 235.073 20.992C235.265 21.344 235.329 21.76 235.265 22.24C235.233 22.688 235.057 23.568 234.737 24.88C233.937 28.144 233.185 31.952 232.481 36.304C232.353 37.2 232.257 38.448 232.193 40.048C232.129 41.648 232.161 42.496 232.289 42.592C232.353 42.656 232.705 42.576 233.345 42.352C235.521 41.616 237.841 39.008 240.305 34.528C241.009 33.216 241.409 32.496 241.505 32.368C241.601 32.24 241.873 31.6 242.321 30.448C242.769 29.264 243.025 28.512 243.089 28.192C243.217 27.648 243.569 27.44 244.145 27.568Z" fill="#E32C89"/>
</svg>
